<svg width="168" height="84" viewBox="0 0 168 84" fill="none" xmlns="http://www.w3.org/2000/svg">
<path d="M82.5227 57V27.9091H92.3523C94.6345 27.9091 96.5 28.321 97.9489 29.1449C99.4072 29.9593 100.487 31.0625 101.188 32.4545C101.888 33.8466 102.239 35.3996 102.239 37.1136C102.239 38.8277 101.888 40.3854 101.188 41.7869C100.496 43.1884 99.4261 44.3059 97.9773 45.1392C96.5284 45.9631 94.6723 46.375 92.4091 46.375H85.3636V43.25H92.2955C93.858 43.25 95.1127 42.9801 96.0597 42.4403C97.0066 41.9006 97.6932 41.1714 98.1193 40.2528C98.5549 39.3248 98.7727 38.2784 98.7727 37.1136C98.7727 35.9489 98.5549 34.9072 98.1193 33.9886C97.6932 33.0701 97.0019 32.3504 96.0455 31.8295C95.089 31.2992 93.8201 31.0341 92.2386 31.0341H86.0455V57H82.5227ZM103.859 57V35.1818H107.211V57H103.859ZM105.563 31.5455C104.91 31.5455 104.346 31.3229 103.873 30.8778C103.409 30.4328 103.177 29.8977 103.177 29.2727C103.177 28.6477 103.409 28.1127 103.873 27.6676C104.346 27.2225 104.91 27 105.563 27C106.217 27 106.775 27.2225 107.239 27.6676C107.713 28.1127 107.95 28.6477 107.95 29.2727C107.95 29.8977 107.713 30.4328 107.239 30.8778C106.775 31.3229 106.217 31.5455 105.563 31.5455ZM118.615 57.4545C116.569 57.4545 114.808 56.9716 113.331 56.0057C111.853 55.0398 110.717 53.7093 109.921 52.0142C109.126 50.3191 108.728 48.3826 108.728 46.2045C108.728 43.9886 109.135 42.0331 109.95 40.3381C110.774 38.6335 111.92 37.303 113.387 36.3466C114.865 35.3807 116.588 34.8977 118.558 34.8977C120.092 34.8977 121.474 35.1818 122.706 35.75C123.937 36.3182 124.945 37.1136 125.731 38.1364C126.517 39.1591 127.005 40.3523 127.194 41.7159H123.842C123.586 40.7216 123.018 39.8409 122.137 39.0739C121.266 38.2973 120.092 37.9091 118.615 37.9091C117.308 37.9091 116.162 38.25 115.177 38.9318C114.202 39.6042 113.439 40.5559 112.89 41.7869C112.35 43.0085 112.081 44.4432 112.081 46.0909C112.081 47.7765 112.346 49.2443 112.876 50.4943C113.416 51.7443 114.173 52.715 115.149 53.4062C116.134 54.0975 117.289 54.4432 118.615 54.4432C119.486 54.4432 120.277 54.2917 120.987 53.9886C121.697 53.6856 122.298 53.25 122.791 52.6818C123.283 52.1136 123.634 51.4318 123.842 50.6364H127.194C127.005 51.9242 126.536 53.0843 125.788 54.1165C125.049 55.1392 124.069 55.9536 122.848 56.5597C121.635 57.1562 120.224 57.4545 118.615 57.4545ZM137.983 35.1818V38.0227H126.677V35.1818H137.983ZM129.972 29.9545H133.324V50.75C133.324 51.697 133.462 52.4072 133.736 52.8807C134.02 53.3447 134.38 53.6572 134.816 53.8182C135.261 53.9697 135.73 54.0455 136.222 54.0455C136.591 54.0455 136.894 54.0265 137.131 53.9886C137.368 53.9413 137.557 53.9034 137.699 53.875L138.381 56.8864C138.154 56.9716 137.837 57.0568 137.429 57.142C137.022 57.2367 136.506 57.2841 135.881 57.2841C134.934 57.2841 134.006 57.0805 133.097 56.6733C132.197 56.2661 131.449 55.6458 130.853 54.8125C130.266 53.9792 129.972 52.928 129.972 51.6591V29.9545ZM148.055 57.4545C146.086 57.4545 144.357 56.9858 142.871 56.0483C141.393 55.1108 140.238 53.7992 139.405 52.1136C138.581 50.428 138.169 48.4583 138.169 46.2045C138.169 43.9318 138.581 41.9479 139.405 40.2528C140.238 38.5578 141.393 37.2415 142.871 36.304C144.357 35.3665 146.086 34.8977 148.055 34.8977C150.025 34.8977 151.748 35.3665 153.226 36.304C154.712 37.2415 155.868 38.5578 156.692 40.2528C157.525 41.9479 157.942 43.9318 157.942 46.2045C157.942 48.4583 157.525 50.428 156.692 52.1136C155.868 53.7992 154.712 55.1108 153.226 56.0483C151.748 56.9858 150.025 57.4545 148.055 57.4545ZM148.055 54.4432C149.551 54.4432 150.783 54.0597 151.748 53.2926C152.714 52.5256 153.429 51.517 153.893 50.267C154.357 49.017 154.589 47.6629 154.589 46.2045C154.589 44.7462 154.357 43.3873 153.893 42.1278C153.429 40.8684 152.714 39.8504 151.748 39.0739C150.783 38.2973 149.551 37.9091 148.055 37.9091C146.559 37.9091 145.328 38.2973 144.362 39.0739C143.396 39.8504 142.681 40.8684 142.217 42.1278C141.753 43.3873 141.521 44.7462 141.521 46.2045C141.521 47.6629 141.753 49.017 142.217 50.267C142.681 51.517 143.396 52.5256 144.362 53.2926C145.328 54.0597 146.559 54.4432 148.055 54.4432ZM161.902 57.2273C161.201 57.2273 160.6 56.9763 160.098 56.4744C159.596 55.9725 159.345 55.3712 159.345 54.6705C159.345 53.9697 159.596 53.3684 160.098 52.8665C160.6 52.3646 161.201 52.1136 161.902 52.1136C162.603 52.1136 163.204 52.3646 163.706 52.8665C164.208 53.3684 164.459 53.9697 164.459 54.6705C164.459 55.1345 164.34 55.5606 164.104 55.9489C163.876 56.3371 163.569 56.6496 163.18 56.8864C162.802 57.1136 162.375 57.2273 161.902 57.2273Z" fill="black"/>
<path fill-rule="evenodd" clip-rule="evenodd" d="M21.8666 30.8247C18.8613 23.5676 22.3082 15.2483 29.5652 12.2431C36.8223 9.2379 45.1416 12.6847 48.1468 19.9418L49.5071 23.2268L52.7922 21.8665C60.0492 18.8612 68.3685 22.3081 71.3737 29.5651C74.3789 36.8222 70.9321 45.1415 63.675 48.1467L60.39 49.507L61.7504 52.7921C64.7556 60.0492 61.3088 68.3684 54.0517 71.3736C46.7946 74.3788 38.4754 70.932 35.4701 63.6749L34.1098 60.3899L30.8247 61.7503C23.5677 64.7555 15.2484 61.3087 12.2432 54.0516C9.238 46.7945 12.6848 38.4753 19.9419 35.47L23.2269 34.1097L21.8666 30.8247ZM28.0171 48.0005C33.8509 47.0579 44.114 51.8166 48.2702 57.4122C47.2535 50.5165 51.1477 39.8952 55.9399 36.4375C50.1061 37.38 39.843 32.6214 35.6869 27.0257C36.7035 33.9215 32.8093 44.5428 28.0171 48.0005Z" fill="url(#paint0_radial_4_245)"/>
<defs>
<radialGradient id="paint0_radial_4_245" cx="0" cy="0" r="1" gradientUnits="userSpaceOnUse" gradientTransform="translate(41.8085 41.8084) rotate(67.5051) scale(32)">
<stop stop-color="white"/>
<stop offset="0.457376" stop-color="#CDF584"/>
<stop offset="1" stop-color="#2CD6E0"/>
</radialGradient>
</defs>
</svg>
