<svg width="83" height="31" viewBox="0 0 83 31" fill="none" xmlns="http://www.w3.org/2000/svg">
<path d="M0.522727 30V0.90909H10.3523C12.6345 0.90909 14.5 1.32102 15.9489 2.14489C17.4072 2.95928 18.4867 4.0625 19.1875 5.45455C19.8883 6.84659 20.2386 8.39962 20.2386 10.1136C20.2386 11.8277 19.8883 13.3854 19.1875 14.7869C18.4962 16.1884 17.4261 17.3059 15.9773 18.1392C14.5284 18.9631 12.6723 19.375 10.4091 19.375H3.36364V16.25H10.2955C11.858 16.25 13.1127 15.9801 14.0597 15.4403C15.0066 14.9006 15.6932 14.1714 16.1193 13.2528C16.5549 12.3248 16.7727 11.2784 16.7727 10.1136C16.7727 8.94886 16.5549 7.9072 16.1193 6.98864C15.6932 6.07008 15.0019 5.35038 14.0455 4.82955C13.089 4.29924 11.8201 4.03409 10.2386 4.03409H4.04545V30H0.522727ZM21.8588 30V8.18182H25.2111V30H21.8588ZM23.5634 4.54545C22.9099 4.54545 22.3465 4.32292 21.873 3.87784C21.409 3.43277 21.177 2.89773 21.177 2.27273C21.177 1.64773 21.409 1.11269 21.873 0.667613C22.3465 0.222538 22.9099 0 23.5634 0C24.2168 0 24.7755 0.222538 25.2395 0.667613C25.713 1.11269 25.9497 1.64773 25.9497 2.27273C25.9497 2.89773 25.713 3.43277 25.2395 3.87784C24.7755 4.32292 24.2168 4.54545 23.5634 4.54545ZM36.6146 30.4545C34.5692 30.4545 32.8078 29.9716 31.3305 29.0057C29.8533 28.0398 28.7169 26.7093 27.9214 25.0142C27.126 23.3191 26.7283 21.3826 26.7283 19.2045C26.7283 16.9886 27.1355 15.0331 27.9499 13.3381C28.7737 11.6335 29.9196 10.303 31.3874 9.34659C32.8646 8.38068 34.5881 7.89773 36.5578 7.89773C38.0919 7.89773 39.4745 8.18182 40.7055 8.75C41.9366 9.31818 42.9451 10.1136 43.7311 11.1364C44.5171 12.1591 45.0048 13.3523 45.1942 14.7159H41.8419C41.5862 13.7216 41.018 12.8409 40.1374 12.0739C39.2661 11.2973 38.0919 10.9091 36.6146 10.9091C35.3078 10.9091 34.162 11.25 33.1771 11.9318C32.2018 12.6042 31.4394 13.5559 30.8902 14.7869C30.3504 16.0085 30.0805 17.4432 30.0805 19.0909C30.0805 20.7765 30.3457 22.2443 30.876 23.4943C31.4158 24.7443 32.1733 25.715 33.1487 26.4062C34.1336 27.0975 35.2889 27.4432 36.6146 27.4432C37.4858 27.4432 38.2766 27.2917 38.9868 26.9886C39.697 26.6856 40.2983 26.25 40.7908 25.6818C41.2832 25.1136 41.6336 24.4318 41.8419 23.6364H45.1942C45.0048 24.9242 44.536 26.0843 43.7879 27.1165C43.0493 28.1392 42.0692 28.9536 40.8476 29.5597C39.6355 30.1562 38.2245 30.4545 36.6146 30.4545ZM55.9834 8.18182V11.0227H44.6766V8.18182H55.9834ZM47.972 2.95455H51.3243V23.75C51.3243 24.697 51.4616 25.4072 51.7362 25.8807C52.0203 26.3447 52.3802 26.6572 52.8158 26.8182C53.2608 26.9697 53.7296 27.0455 54.222 27.0455C54.5913 27.0455 54.8944 27.0265 55.1311 26.9886C55.3679 26.9413 55.5572 26.9034 55.6993 26.875L56.3811 29.8864C56.1538 29.9716 55.8366 30.0568 55.4294 30.142C55.0222 30.2367 54.5061 30.2841 53.8811 30.2841C52.9341 30.2841 52.0061 30.0805 51.097 29.6733C50.1974 29.2661 49.4493 28.6458 48.8527 27.8125C48.2656 26.9792 47.972 25.928 47.972 24.6591V2.95455ZM66.0553 30.4545C64.0856 30.4545 62.3573 29.9858 60.8706 29.0483C59.3933 28.1108 58.238 26.7992 57.4047 25.1136C56.5808 23.428 56.1689 21.4583 56.1689 19.2045C56.1689 16.9318 56.5808 14.9479 57.4047 13.2528C58.238 11.5578 59.3933 10.2415 60.8706 9.30398C62.3573 8.36648 64.0856 7.89773 66.0553 7.89773C68.025 7.89773 69.7484 8.36648 71.2257 9.30398C72.7125 10.2415 73.8678 11.5578 74.6916 13.2528C75.525 14.9479 75.9416 16.9318 75.9416 19.2045C75.9416 21.4583 75.525 23.428 74.6916 25.1136C73.8678 26.7992 72.7125 28.1108 71.2257 29.0483C69.7484 29.9858 68.025 30.4545 66.0553 30.4545ZM66.0553 27.4432C67.5515 27.4432 68.7825 27.0597 69.7484 26.2926C70.7143 25.5256 71.4293 24.517 71.8933 23.267C72.3573 22.017 72.5893 20.6629 72.5893 19.2045C72.5893 17.7462 72.3573 16.3873 71.8933 15.1278C71.4293 13.8684 70.7143 12.8504 69.7484 12.0739C68.7825 11.2973 67.5515 10.9091 66.0553 10.9091C64.559 10.9091 63.328 11.2973 62.3621 12.0739C61.3962 12.8504 60.6812 13.8684 60.2172 15.1278C59.7532 16.3873 59.5212 17.7462 59.5212 19.2045C59.5212 20.6629 59.7532 22.017 60.2172 23.267C60.6812 24.517 61.3962 25.5256 62.3621 26.2926C63.328 27.0597 64.559 27.4432 66.0553 27.4432ZM79.902 30.2273C79.2012 30.2273 78.5999 29.9763 78.098 29.4744C77.5961 28.9725 77.3452 28.3712 77.3452 27.6705C77.3452 26.9697 77.5961 26.3684 78.098 25.8665C78.5999 25.3646 79.2012 25.1136 79.902 25.1136C80.6027 25.1136 81.2041 25.3646 81.706 25.8665C82.2079 26.3684 82.4588 26.9697 82.4588 27.6705C82.4588 28.1345 82.3404 28.5606 82.1037 28.9489C81.8764 29.3371 81.5687 29.6496 81.1804 29.8864C80.8016 30.1136 80.3755 30.2273 79.902 30.2273Z" fill="black"/>
</svg>
