<svg width="62" height="62" viewBox="0 0 62 62" fill="none" xmlns="http://www.w3.org/2000/svg">
<path fill-rule="evenodd" clip-rule="evenodd" d="M10.8666 19.8247C7.86135 12.5676 11.3082 4.24833 18.5652 1.24311C25.8223 -1.7621 34.1416 1.68471 37.1468 8.9418L38.5071 12.2268L41.7922 10.8665C49.0492 7.86125 57.3685 11.3081 60.3737 18.5651C63.3789 25.8222 59.9321 34.1415 52.675 37.1467L49.39 38.507L50.7504 41.7921C53.7556 49.0492 50.3088 57.3684 43.0517 60.3736C35.7946 63.3788 27.4754 59.932 24.4701 52.6749L23.1098 49.3899L19.8247 50.7503C12.5677 53.7555 4.24843 50.3087 1.24321 43.0516C-1.762 35.7945 1.68481 27.4753 8.94189 24.47L12.2269 23.1097L10.8666 19.8247ZM17.0171 37.0005C22.8509 36.0579 33.114 40.8166 37.2702 46.4122C36.2535 39.5165 40.1477 28.8952 44.9399 25.4375C39.1061 26.38 28.843 21.6214 24.6869 16.0257C25.7035 22.9215 21.8093 33.5428 17.0171 37.0005Z" fill="url(#paint0_radial_2_4)"/>
<defs>
<radialGradient id="paint0_radial_2_4" cx="0" cy="0" r="1" gradientUnits="userSpaceOnUse" gradientTransform="translate(30.8085 30.8084) rotate(67.5051) scale(32)">
<stop stop-color="white"/>
<stop offset="0.457376" stop-color="#CDF584"/>
<stop offset="1" stop-color="#2CD6E0"/>
</radialGradient>
</defs>
</svg>
