<svg width="26" height="26" viewBox="0 0 26 26" fill="none" xmlns="http://www.w3.org/2000/svg">
<path d="M16.7091 13.4799H13.4799V16.7091C13.4799 16.8804 13.4119 17.0446 13.2907 17.1657C13.1696 17.2869 13.0054 17.3549 12.8341 17.3549C12.6628 17.3549 12.4985 17.2869 12.3774 17.1657C12.2563 17.0446 12.1882 16.8804 12.1882 16.7091V13.4799H8.95907C8.78778 13.4799 8.62351 13.4119 8.50239 13.2907C8.38127 13.1696 8.31323 13.0054 8.31323 12.8341C8.31323 12.6628 8.38127 12.4985 8.50239 12.3774C8.62351 12.2563 8.78778 12.1882 8.95907 12.1882H12.1882V8.95907C12.1882 8.78778 12.2563 8.62351 12.3774 8.50239C12.4985 8.38127 12.6628 8.31323 12.8341 8.31323C13.0054 8.31323 13.1696 8.38127 13.2907 8.50239C13.4119 8.62351 13.4799 8.78778 13.4799 8.95907V12.1882H16.7091C16.8804 12.1882 17.0446 12.2563 17.1657 12.3774C17.2869 12.4985 17.3549 12.6628 17.3549 12.8341C17.3549 13.0054 17.2869 13.1696 17.1657 13.2907C17.0446 13.4119 16.8804 13.4799 16.7091 13.4799Z" fill="#4EF4D8"/>
<path d="M12.834 25.6628C10.296 25.6633 7.81479 24.9112 5.70428 23.5014C3.59377 22.0917 1.94873 20.0877 0.977233 17.743C0.0057337 15.3982 -0.248589 12.8181 0.246432 10.3288C0.741453 7.83948 1.96358 5.5529 3.75824 3.75824C5.5529 1.96358 7.83948 0.741453 10.3288 0.246432C12.8181 -0.248589 15.3982 0.0057337 17.743 0.977233C20.0877 1.94873 22.0917 3.59377 23.5014 5.70428C24.9112 7.81479 25.6633 10.296 25.6628 12.834C25.6587 16.2352 24.3058 19.4958 21.9008 21.9008C19.4958 24.3058 16.2352 25.6587 12.834 25.6628ZM12.834 1.29296C10.5516 1.29245 8.32031 1.96878 6.42229 3.23642C4.52428 4.50405 3.0448 6.30606 2.17095 8.41455C1.2971 10.523 1.06813 12.8433 1.513 15.0819C1.95786 17.3206 3.05659 19.377 4.67022 20.9912C6.28385 22.6054 8.33991 23.7048 10.5784 24.1504C12.8169 24.596 15.1372 24.3678 17.246 23.4947C19.3548 22.6215 21.1573 21.1427 22.4256 19.2451C23.6938 17.3475 24.3709 15.1164 24.3712 12.834C24.3681 9.77475 23.1517 6.84161 20.9889 4.67802C18.826 2.51444 15.8933 1.29707 12.834 1.29296Z" fill="#4EF4D8"/>
</svg>
