<svg width="70" height="70" viewBox="0 0 70 70" fill="none" xmlns="http://www.w3.org/2000/svg">
<path d="M33.413 8H19.587C8.60386 8 0 21.617 0 39C0 56.383 8.60386 70 19.587 70H33.413C44.3961 70 53 56.383 53 39C53 21.617 44.3961 8 33.413 8ZM44.1311 51.6296H37.5349C38.3488 48.6262 38.8592 45.5491 39.0587 42.4444H45.9516C45.7246 45.5689 45.1132 48.6538 44.1311 51.6296ZM39.0587 35.5556C38.8592 32.4509 38.3488 29.3738 37.5349 26.3704H44.1311C45.1132 29.3462 45.7246 32.4311 45.9516 35.5556H39.0587ZM40.6804 19.4815H34.9195C34.1094 17.8621 33.1448 16.3241 32.0391 14.8889H33.413C34.9598 14.8889 37.8057 15.5347 40.6804 19.4815ZM11.1674 56.7504C8.42239 52.0631 6.91304 45.7597 6.91304 39C6.91304 32.2403 8.42239 25.9369 11.1674 21.2496C14.4022 15.7156 17.8328 14.8889 19.587 14.8889C21.3411 14.8889 24.7717 15.7156 28.0065 21.2496C30.7515 25.9369 32.2609 32.2403 32.2609 39C32.2609 45.7597 30.7515 52.0631 28.0065 56.7504C24.7717 62.2844 21.3411 63.1111 19.587 63.1111C17.8328 63.1111 14.4022 62.2844 11.1674 56.7504ZM33.413 63.1111H32.0333C33.1391 61.6759 34.1037 60.1379 34.9138 58.5185H40.6746C37.8057 62.4653 34.9598 63.1111 33.413 63.1111Z" fill="black"/>
<path d="M68.7143 10.2857H62.2857V16.7143C62.2857 17.0553 62.1503 17.3823 61.9091 17.6234C61.668 17.8645 61.341 18 61 18C60.659 18 60.332 17.8645 60.0909 17.6234C59.8497 17.3823 59.7143 17.0553 59.7143 16.7143V10.2857H53.2857C52.9447 10.2857 52.6177 10.1503 52.3766 9.90914C52.1355 9.66802 52 9.34099 52 9C52 8.65901 52.1355 8.33198 52.3766 8.09086C52.6177 7.84974 52.9447 7.71429 53.2857 7.71429H59.7143V1.28571C59.7143 0.944722 59.8497 0.617694 60.0909 0.376576C60.332 0.135458 60.659 0 61 0C61.341 0 61.668 0.135458 61.9091 0.376576C62.1503 0.617694 62.2857 0.944722 62.2857 1.28571V7.71429H68.7143C69.0553 7.71429 69.3823 7.84974 69.6234 8.09086C69.8645 8.33198 70 8.65901 70 9C70 9.34099 69.8645 9.66802 69.6234 9.90914C69.3823 10.1503 69.0553 10.2857 68.7143 10.2857Z" fill="black"/>
</svg>
