<svg width="22" height="18" viewBox="0 0 22 18" fill="none" xmlns="http://www.w3.org/2000/svg">
<path fill-rule="evenodd" clip-rule="evenodd" d="M12.8667 5.697C12.9 5.75527 12.9583 5.79689 13.0333 5.79689C15.0333 5.79689 16.6667 7.42841 16.6667 9.42619V14.3707C16.6667 16.3685 15.0333 18 13.0333 18H3.63334C1.625 18 0 16.3685 0 14.3707V9.42619C0 7.42841 1.625 5.79689 3.63334 5.79689C3.7 5.79689 3.76667 5.7636 3.79167 5.697L3.84167 5.59711C3.8704 5.53665 3.89988 5.47455 3.92981 5.4115C4.143 4.96246 4.37886 4.46567 4.525 4.1737C4.90834 3.42453 5.55834 3.00832 6.36667 3H10.2917C11.1 3.00832 11.7583 3.42453 12.1417 4.1737C12.2729 4.43592 12.4729 4.85833 12.6656 5.26545C12.7054 5.34942 12.7449 5.43274 12.7833 5.51387L12.8667 5.697ZM12.2583 8.89345C12.2583 9.30966 12.5917 9.64262 13.0083 9.64262C13.425 9.64262 13.7667 9.30966 13.7667 8.89345C13.7667 8.47725 13.425 8.13596 13.0083 8.13596C12.5917 8.13596 12.2583 8.47725 12.2583 8.89345ZM6.89167 10.1837C7.28334 9.79245 7.79167 9.58435 8.33331 9.58435C8.87501 9.58435 9.38331 9.79245 9.76671 10.1754C10.15 10.5583 10.3583 11.066 10.3583 11.6071C10.35 12.7225 9.45001 13.6299 8.33331 13.6299C7.79167 13.6299 7.28334 13.4218 6.9 13.0388C6.51667 12.6559 6.30834 12.1482 6.30834 11.6071V11.5988C6.3 11.0744 6.50834 10.5666 6.89167 10.1837ZM10.6417 13.9212C10.05 14.5122 9.23331 14.8785 8.33331 14.8785C7.45834 14.8785 6.64167 14.5372 6.01667 13.9212C5.4 13.2969 5.05834 12.4811 5.05834 11.6071C5.05 10.7414 5.39167 9.92564 6.00834 9.30133C6.63334 8.67703 7.45834 8.33574 8.33331 8.33574C9.20831 8.33574 10.0333 8.67703 10.65 9.29301C11.2667 9.91731 11.6083 10.7414 11.6083 11.6071C11.6 12.5144 11.2333 13.3302 10.6417 13.9212Z" fill="black"/>
<path d="M18.1621 0.99844C18.2148 1.01836 18.25 1.06875 18.25 1.125C18.25 1.18125 18.2148 1.23164 18.1621 1.25157C17.7414 1.40943 17.4094 1.7414 17.2516 2.16212C17.2316 2.21485 17.1812 2.25 17.125 2.25C17.0687 2.25 17.0183 2.21485 16.9984 2.16212C16.8406 1.7414 16.5086 1.40943 16.0879 1.25157C16.0352 1.23164 16 1.18125 16 1.125C16 1.06875 16.0352 1.01836 16.0879 0.99844C16.5086 0.840578 16.8406 0.508603 16.9984 0.0878909C17.0183 0.0351564 17.0687 0 17.125 0C17.1812 0 17.2316 0.0351564 17.2516 0.0878909C17.4094 0.508603 17.7414 0.840578 18.1621 0.99844ZM19.5965 0.858988C19.627 0.792189 19.6937 0.75 19.7664 0.75C19.8391 0.75 19.9059 0.792189 19.9363 0.858988L20.092 1.19502C20.3909 1.84054 20.9096 2.35881 21.5553 2.65732L21.891 2.81251C21.9578 2.84298 22 2.90977 22 2.9836C22 3.05744 21.9578 3.12305 21.891 3.15353L21.557 3.30779C20.9095 3.60685 20.3898 4.12682 20.091 4.77444L19.9375 5.10705C19.907 5.17383 19.8402 5.21604 19.7676 5.21604C19.6949 5.21604 19.6281 5.17383 19.5977 5.10705L19.4431 4.77248C19.1442 4.12535 18.6247 3.60579 17.9775 3.30689L17.643 3.15236C17.5762 3.12188 17.534 3.05507 17.534 2.98243C17.534 2.90977 17.5762 2.84298 17.643 2.81251L17.9756 2.65904C18.6232 2.36023 19.1432 1.84045 19.4422 1.19295L19.5965 0.858988ZM17.2516 3.8379C17.4094 4.25861 17.7414 4.59058 18.1621 4.74846C18.2148 4.76838 18.25 4.81875 18.25 4.875C18.25 4.93125 18.2148 4.98165 18.1621 5.00157C17.7414 5.15942 17.4094 5.49142 17.2516 5.91213C17.2316 5.96487 17.1812 6 17.125 6C17.0687 6 17.0183 5.96487 16.9984 5.91213C16.8406 5.49142 16.5086 5.15942 16.0879 5.00157C16.0352 4.98165 16 4.93125 16 4.875C16 4.81875 16.0352 4.76838 16.0879 4.74846C16.5086 4.59058 16.8406 4.25861 16.9984 3.8379C17.0183 3.78516 17.0687 3.75 17.125 3.75C17.1812 3.75 17.2316 3.78516 17.2516 3.8379Z" fill="black"/>
</svg>
