<svg width="25" height="25" viewBox="0 0 25 25" fill="none" xmlns="http://www.w3.org/2000/svg">
<path d="M24 12.5C24 6.14873 18.8513 1 12.5 1C6.14873 1 1 6.14873 1 12.5C1 18.8513 6.14873 24 12.5 24C18.8513 24 24 18.8513 24 12.5Z" fill="#F4F7FE"/>
<path d="M24 12.5C24 6.14873 18.8513 1 12.5 1C6.14873 1 1 6.14873 1 12.5C1 18.8513 6.14873 24 12.5 24C18.8513 24 24 18.8513 24 12.5Z" stroke="#4EF4D8"/>
<path d="M11.0757 17.8232L7.17573 13.9008C6.94142 13.6652 6.94142 13.2831 7.17573 13.0474L8.02424 12.194C8.25854 11.9583 8.63846 11.9583 8.87277 12.194L11.5 14.8363L17.1272 9.17674C17.3615 8.94109 17.7415 8.94109 17.9758 9.17674L18.8243 10.0301C19.0586 10.2658 19.0586 10.6479 18.8243 10.8836L11.9243 17.8233C11.6899 18.0589 11.31 18.0589 11.0757 17.8232Z" fill="#4EF4D8"/>
</svg>
