<svg width="44" height="39" viewBox="0 0 44 39" fill="none" xmlns="http://www.w3.org/2000/svg">
<path fill-rule="evenodd" clip-rule="evenodd" d="M8.25171 32.4876C5.33092 30.3033 7.92992 21.892 14.0571 13.7015C20.1833 5.50833 27.5156 0.6396 30.4353 2.82115C32.0553 4.03334 33.6742 5.24294 35.2931 6.4525C38.2139 8.63675 35.6149 17.048 29.4877 25.2385C23.3616 33.4317 16.0303 38.303 13.1096 36.1188C11.4906 34.9093 9.87067 33.6971 8.25171 32.4876Z" fill="#FE9923"/>
<path fill-rule="evenodd" clip-rule="evenodd" d="M14.0571 13.7015C20.1833 5.50833 27.5156 0.6396 30.4353 2.82115C33.356 5.00541 30.757 13.4168 24.6298 21.6073C18.5062 29.7993 11.1713 34.6692 8.25167 32.4875C5.33092 30.3033 7.92992 21.892 14.0571 13.7015Z" fill="#FECD3D"/>
<path fill-rule="evenodd" clip-rule="evenodd" d="M16.527 15.5476C21.4007 9.03193 26.6139 4.69172 28.1694 5.85433C29.7249 7.01689 27.0326 13.2431 22.1601 19.7613C17.2863 26.277 12.0758 30.616 10.5203 29.4535C8.96482 28.2909 11.6543 22.0658 16.527 15.5476Z" fill="#FEA832"/>
<path d="M25.8647 25.1141L28.2164 26.8718C27.879 27.2885 27.5396 27.6935 27.1958 28.0882L24.9162 26.383L25.8647 25.1141ZM16.1888 34.1464L18.2222 35.6665C18.7058 35.425 19.2075 35.1389 19.7228 34.8128L17.1374 32.8774C16.767 33.373 16.5593 33.6508 16.1888 34.1464ZM20.9188 30.5388L23.1472 32.2041C23.5403 31.8594 23.9344 31.4956 24.3308 31.1155L21.8684 29.2724L20.9188 30.5388ZM28.3431 21.7983L30.6947 23.5558C30.9979 23.1169 31.2909 22.676 31.5723 22.2369L29.2939 20.5343L28.3431 21.7983ZM34.2705 9.96304L33.323 11.2348L35.91 13.1666C36.0766 12.5821 36.2088 12.0185 36.3049 11.4858L34.2705 9.96304ZM31.2021 16.7894L33.6645 18.6326C33.9195 18.1461 34.155 17.665 34.375 17.1904L32.1503 15.5267L31.2021 16.7894Z" fill="#C85929"/>
</svg>
