<svg width="20" height="20" viewBox="0 0 20 20" fill="none" xmlns="http://www.w3.org/2000/svg">
<path d="M11.25 1.25C11.25 0.558594 10.6914 0 10 0C9.30859 0 8.75 0.558594 8.75 1.25V10.7305L5.88281 7.86328C5.39453 7.375 4.60156 7.375 4.11328 7.86328C3.625 8.35156 3.625 9.14453 4.11328 9.63281L9.11328 14.6328C9.60156 15.1211 10.3945 15.1211 10.8828 14.6328L15.8828 9.63281C16.3711 9.14453 16.3711 8.35156 15.8828 7.86328C15.3945 7.375 14.6016 7.375 14.1133 7.86328L11.25 10.7305V1.25ZM2.5 13.75C1.12109 13.75 0 14.8711 0 16.25V17.5C0 18.8789 1.12109 20 2.5 20H17.5C18.8789 20 20 18.8789 20 17.5V16.25C20 14.8711 18.8789 13.75 17.5 13.75H13.5352L11.7656 15.5195C10.7891 16.4961 9.20703 16.4961 8.23047 15.5195L6.46484 13.75H2.5ZM16.875 15.9375C17.1236 15.9375 17.3621 16.0363 17.5379 16.2121C17.7137 16.3879 17.8125 16.6264 17.8125 16.875C17.8125 17.1236 17.7137 17.3621 17.5379 17.5379C17.3621 17.7137 17.1236 17.8125 16.875 17.8125C16.6264 17.8125 16.3879 17.7137 16.2121 17.5379C16.0363 17.3621 15.9375 17.1236 15.9375 16.875C15.9375 16.6264 16.0363 16.3879 16.2121 16.2121C16.3879 16.0363 16.6264 15.9375 16.875 15.9375Z" fill="black"/>
</svg>
