<svg width="16" height="16" viewBox="0 0 16 16" fill="none" xmlns="http://www.w3.org/2000/svg">
<path d="M2.33137 6.41126H0.582841C0.262279 6.41126 0 6.14898 0 5.82841C0 5.50785 0.262279 5.24557 0.582841 5.24557H2.33137C2.65193 5.24557 2.91421 5.50785 2.91421 5.82841C2.91421 6.14898 2.65193 6.41126 2.33137 6.41126ZM3.35498 3.93782C3.20198 3.93782 3.05263 3.8759 2.94335 3.76661L1.70845 2.53172C1.4826 2.30587 1.4826 1.9343 1.70845 1.70845C1.9343 1.4826 2.30587 1.4826 2.53172 1.70845L3.76661 2.94335C3.99611 3.1692 3.99611 3.54076 3.76661 3.76661C3.65733 3.8759 3.51162 3.93782 3.35498 3.93782ZM5.82841 2.91421C5.50785 2.91421 5.24557 2.65193 5.24557 2.33137V0.582841C5.24557 0.262279 5.50785 0 5.82841 0C6.14898 0 6.41126 0.262279 6.41126 0.582841V2.33137C6.41126 2.65193 6.14898 2.91421 5.82841 2.91421ZM8.30185 3.93782C7.98128 3.93782 7.71901 3.67554 7.71901 3.35498C7.71901 3.20198 7.78093 3.05263 7.89022 2.94335L9.12511 1.70845C9.35096 1.4826 9.72252 1.4826 9.94837 1.70845C10.1742 1.9343 10.1742 2.30587 9.94837 2.53172L8.71348 3.76661C8.6042 3.8759 8.45484 3.93782 8.30185 3.93782ZM2.12009 10.1196C1.79952 10.1196 1.53724 9.8573 1.53724 9.53674C1.53724 9.38375 1.59917 9.23439 1.70845 9.12511L2.94335 7.89022C3.1692 7.66436 3.54076 7.66436 3.76661 7.89022C3.99246 8.11607 3.99246 8.48763 3.76661 8.71348L2.53172 9.94837C2.42243 10.0577 2.27308 10.1196 2.12009 10.1196ZM7.36566 4.91772C6.69539 4.23653 5.59892 4.2256 4.91772 4.89223C4.23653 5.55885 4.2256 6.65896 4.89223 7.34016L4.91772 7.36566L6.35661 8.80455C6.46954 8.91747 6.65532 8.91747 6.76825 8.80455L8.80455 6.76825C8.91747 6.65532 8.91747 6.46954 8.80455 6.35661L7.36566 4.91772ZM15.4817 13.0338L10.0394 7.59151C9.92652 7.47858 9.74074 7.47858 9.62781 7.59151L7.59151 9.62781C7.47858 9.74074 7.47858 9.92652 7.59151 10.0394L13.0338 15.4817C13.7041 16.1629 14.8005 16.1738 15.4817 15.5072C16.1629 14.837 16.1738 13.7405 15.5072 13.0593C15.4999 13.052 15.4927 13.0411 15.4817 13.0338Z" fill="black"/>
</svg>
