<svg width="46" height="46" viewBox="0 0 46 46" fill="none" xmlns="http://www.w3.org/2000/svg">
<g clip-path="url(#clip0_7_298)">
<path d="M43 23C43 11.9543 34.0457 3 23 3C11.9543 3 3 11.9543 3 23C3 34.0457 11.9543 43 23 43C34.0457 43 43 34.0457 43 23Z" fill="#F9FFFE"/>
<path d="M43 23C43 11.9543 34.0457 3 23 3C11.9543 3 3 11.9543 3 23C3 34.0457 11.9543 43 23 43C34.0457 43 43 34.0457 43 23Z" stroke="#EAFFB0" stroke-width="6"/>
<path d="M23.4743 15L19.2495 24.0847C19.084 24.4405 19.0013 24.6184 19 24.7686C18.9989 24.8992 19.0314 25.0235 19.0881 25.1056C19.1533 25.2 19.2825 25.2 19.541 25.2H23L22.5257 32L26.7505 22.9154C26.916 22.5596 26.9987 22.3817 27 22.2315C27.0011 22.1008 26.9686 21.9766 26.9119 21.8945C26.8467 21.8 26.7175 21.8 26.459 21.8H23L23.4743 15Z" stroke="#D7F77F" stroke-linecap="round" stroke-linejoin="round"/>
</g>
<defs>
<clipPath id="clip0_7_298">
<rect width="46" height="46" fill="white"/>
</clipPath>
</defs>
</svg>
