<svg width="31" height="33" viewBox="0 0 31 33" fill="none" xmlns="http://www.w3.org/2000/svg">
<path d="M9.4375 32.25C10.5421 32.25 11.4375 31.3546 11.4375 30.25V23.5C11.4375 22.3954 12.3329 21.5 13.4375 21.5H17.5C18.6046 21.5 19.5 22.3954 19.5 23.5V30.25C19.5 31.3546 20.3954 32.25 21.5 32.25H25.6969C26.8014 32.25 27.6969 31.3546 27.6969 30.25V17.5981C27.6969 16.7845 28.3564 16.125 29.1699 16.125V16.125C30.5109 16.125 31.1544 14.4791 30.1691 13.5695L16.8253 1.25221C16.0592 0.545018 14.8783 0.545019 14.1122 1.25221L0.768421 13.5695C-0.216907 14.4791 0.426626 16.125 1.76757 16.125V16.125C2.58111 16.125 3.24063 16.7845 3.24063 17.5981V30.25C3.24063 31.3546 4.13606 32.25 5.24062 32.25H9.4375Z" fill="black"/>
</svg>
