<svg width="36" height="32" viewBox="0 0 36 32" fill="none" xmlns="http://www.w3.org/2000/svg">
<path d="M2 0C0.895431 0 0 0.89543 0 2V4.4C0 5.50457 0.895431 6.4 2 6.4H34C35.1046 6.4 36 5.50457 36 4.4V2C36 0.895432 35.1046 0 34 0H2ZM2 12.8C0.895431 12.8 0 13.6954 0 14.8V17.2C0 18.3046 0.895431 19.2 2 19.2H34C35.1046 19.2 36 18.3046 36 17.2V14.8C36 13.6954 35.1046 12.8 34 12.8H2ZM2 25.6C0.895431 25.6 0 26.4954 0 27.6V30C0 31.1046 0.895431 32 2 32H34C35.1046 32 36 31.1046 36 30V27.6C36 26.4954 35.1046 25.6 34 25.6H2Z" fill="black"/>
</svg>
