<svg width="46" height="46" viewBox="0 0 46 46" fill="none" xmlns="http://www.w3.org/2000/svg">
<path d="M44 23C44 11.9543 35.0457 3 24 3C12.9543 3 4 11.9543 4 23C4 34.0457 12.9543 43 24 43C35.0457 43 44 34.0457 44 23Z" fill="#EFFFFC"/>
<path d="M43 23C43 11.9543 34.0457 3 23 3C11.9543 3 3 11.9543 3 23C3 34.0457 11.9543 43 23 43C34.0457 43 43 34.0457 43 23Z" stroke="url(#paint0_linear_7_300)" stroke-width="6"/>
<path d="M14.3558 17.1161L11.1871 24.0632C11.063 24.3353 11.001 24.4713 11 24.5862C10.9992 24.6861 11.0235 24.7811 11.0661 24.8439C11.115 24.9161 11.2119 24.9161 11.4058 24.9161H14L13.6442 30.1161L16.8129 23.169C16.937 22.897 16.999 22.7609 17 22.646C17.0008 22.5461 16.9765 22.4511 16.9339 22.3883C16.885 22.3161 16.7881 22.3161 16.5942 22.3161H14L14.3558 17.1161Z" stroke="#4EF4D8" stroke-linecap="round" stroke-linejoin="round"/>
<path d="M32.3558 17.1161L29.1871 24.0632C29.063 24.3353 29.001 24.4713 29 24.5862C28.9992 24.6861 29.0235 24.7811 29.0661 24.8439C29.115 24.9161 29.2119 24.9161 29.4058 24.9161H32L31.6442 30.1161L34.8129 23.169C34.937 22.897 34.999 22.7609 35 22.646C35.0008 22.5461 34.9765 22.4511 34.9339 22.3883C34.885 22.3161 34.7881 22.3161 34.5942 22.3161H32L32.3558 17.1161Z" stroke="#4EF4D8" stroke-linecap="round" stroke-linejoin="round"/>
<path d="M22.7806 31.1264L26.7313 21.9192C26.886 21.5586 26.9634 21.3783 26.9601 21.2281C26.9573 21.0975 26.9211 20.9742 26.862 20.8939C26.7939 20.8015 26.6648 20.8054 26.4064 20.8131L22.949 20.9168L23.2193 14.1056L19.2686 23.3128C19.1139 23.6734 19.0365 23.8537 19.0398 24.0039C19.0426 24.1345 19.0788 24.2577 19.1379 24.3381C19.206 24.4305 19.3351 24.4267 19.5935 24.4189L23.0509 24.3152L22.7806 31.1264Z" stroke="#4EF4D8" stroke-linecap="round" stroke-linejoin="round"/>
<defs>
<linearGradient id="paint0_linear_7_300" x1="23" y1="3" x2="23" y2="43" gradientUnits="userSpaceOnUse">
<stop stop-color="#D7F77F"/>
<stop offset="1" stop-color="#4EF4D8"/>
</linearGradient>
</defs>
</svg>
