<svg width="46" height="46" viewBox="0 0 46 46" fill="none" xmlns="http://www.w3.org/2000/svg">
<path d="M43 23C43 11.9543 34.0457 3 23 3C11.9543 3 3 11.9543 3 23C3 34.0457 11.9543 43 23 43C34.0457 43 43 34.0457 43 23Z" fill="#EFFFFC"/>
<path d="M43 23C43 11.9543 34.0457 3 23 3C11.9543 3 3 11.9543 3 23C3 34.0457 11.9543 43 23 43C34.0457 43 43 34.0457 43 23Z" stroke="#BFFFF4" stroke-width="6"/>
<path d="M16.4743 15L12.2495 24.0847C12.084 24.4405 12.0013 24.6184 12 24.7686C11.9989 24.8992 12.0314 25.0235 12.0881 25.1056C12.1533 25.2 12.2825 25.2 12.541 25.2H16L15.5257 32L19.7505 22.9154C19.916 22.5596 19.9987 22.3817 20 22.2315C20.0011 22.1008 19.9686 21.9766 19.9119 21.8945C19.8467 21.8 19.7175 21.8 19.459 21.8H16L16.4743 15Z" stroke="#4EF4D8" stroke-linecap="round" stroke-linejoin="round"/>
<path d="M28.5257 15L32.7505 24.0847C32.916 24.4405 32.9987 24.6184 33 24.7686C33.0011 24.8992 32.9686 25.0235 32.9119 25.1056C32.8467 25.2 32.7175 25.2 32.459 25.2H29L29.4743 32L25.2495 22.9154C25.084 22.5596 25.0013 22.3817 25 22.2315C24.9989 22.1008 25.0314 21.9766 25.0881 21.8945C25.1533 21.8 25.2825 21.8 25.541 21.8H29L28.5257 15Z" stroke="#4EF4D8" stroke-linecap="round" stroke-linejoin="round"/>
</svg>
