<svg width="19" height="15" viewBox="0 0 19 15" fill="none" xmlns="http://www.w3.org/2000/svg">
<path fill-rule="evenodd" clip-rule="evenodd" d="M6.18975 0C6.53975 0 6.82391 0.27865 6.82391 0.62268C6.82391 0.96589 6.54058 1.24455 6.18975 1.24455L4.83225 1.24536C3.70558 1.247 2.78891 2.1467 2.78891 3.25233V4.80167C2.78891 5.14488 2.50391 5.42436 2.15391 5.42436C1.80391 5.42436 1.51975 5.14488 1.51975 4.80167V3.25233C1.51975 1.46109 3.00558 0.00244992 4.83141 0.000819921L6.18975 0ZM12.1672 0.000250101H13.4947C15.3255 0.000250101 16.8138 1.45971 16.8138 3.25502V4.80192C16.8138 5.14513 16.5305 5.4246 16.1797 5.4246C15.8297 5.4246 15.5455 5.14513 15.5455 4.80192V3.25502C15.5455 2.14613 14.6255 1.24397 13.4947 1.24397H12.1672C11.8172 1.24397 11.533 0.96614 11.533 0.62293C11.533 0.2789 11.8172 0.000250101 12.1672 0.000250101ZM11.4688 3.11888H6.86541C5.81208 3.1295 4.96541 3.97364 4.97458 5.00735V6.04516C4.97708 6.1661 5.07625 6.26497 5.19958 6.26906H13.1329C13.2571 6.26579 13.3563 6.16691 13.3604 6.04516V5.00735C13.3613 4.50807 13.1646 4.02839 12.8096 3.67129C12.4571 3.31745 11.9729 3.11888 11.4688 3.11888ZM0.635002 7.5344H17.6992C18.0492 7.5344 18.3333 7.813 18.3333 8.157C18.3333 8.5003 18.0492 8.7781 17.6992 8.7781H16.8142V11.7444C16.8142 13.5405 15.325 15 13.495 15H12.1675C11.8167 15 11.5325 14.7213 11.5325 14.3773C11.5325 14.0341 11.8167 13.7555 12.1675 13.7555H13.495C14.6258 13.7555 15.5458 12.8541 15.5458 11.7444V8.7781H13.36V9.6042C13.3683 10.638 12.5225 11.4829 11.4683 11.4927H6.865C5.81166 11.4829 4.96583 10.638 4.97416 9.6042V8.7781H2.78833V11.7477C2.78833 12.8533 3.70583 13.753 4.83333 13.7546L6.19 13.7555C6.54 13.7555 6.82416 14.0341 6.82416 14.3773C6.82333 14.7213 6.54 15 6.18916 15L4.83166 14.9992C3.00583 14.9975 1.51916 13.5389 1.51916 11.7477V8.7781H0.635002C0.285002 8.7781 0 8.5003 0 8.157C0 7.813 0.285002 7.5344 0.635002 7.5344Z" fill="black"/>
</svg>
