<svg width="37" height="35" viewBox="0 0 37 35" fill="none" xmlns="http://www.w3.org/2000/svg">
<path d="M32.2868 13.9431L18.9456 0.601892C18.5442 0.200417 18.0181 0 17.492 0C16.9659 0 16.4398 0.200417 16.039 0.601892L10.7986 5.84227L5.2627 0.305764C4.86123 -0.0957118 4.21052 -0.0957118 3.80968 0.305764L2.35666 1.75878C1.95583 2.16026 1.95583 2.81097 2.35666 3.21181L7.89317 8.74767L1.80616 14.8347C-0.602053 17.2423 -0.602053 21.1465 1.80616 23.5547L9.33399 31.0826C10.5378 32.2864 12.1161 32.8889 13.6937 32.8889C15.272 32.8889 16.8496 32.287 18.0534 31.0826L32.2862 16.8498C33.0891 16.0468 33.0891 14.746 32.2868 13.9431ZM24.8213 18.5019H4.23493C4.32229 18.2553 4.46425 17.9893 4.7122 17.742L5.55691 16.8973L10.7992 11.655L14.5635 15.4192C15.3658 16.2215 16.6672 16.2215 17.4695 15.4192C18.2718 14.6169 18.2718 13.3155 17.4695 12.5132L13.7053 8.74896L17.492 4.96224L27.9265 15.3968L24.8213 18.5019Z" fill="black"/>
<path d="M32.6756 24.1076C32.5701 24.1508 32.4998 24.26 32.4998 24.3818C32.4998 24.5037 32.5701 24.6129 32.6756 24.6561L32.7398 24.6822C33.5405 25.0077 34.162 25.6627 34.4449 26.4795L34.4966 26.6289C34.5365 26.7432 34.6373 26.8193 34.7498 26.8193C34.8623 26.8193 34.9631 26.7432 35.0029 26.6289L35.0546 26.4795C35.3375 25.6627 35.959 25.0077 36.7597 24.6822L36.824 24.6561C36.9294 24.6129 36.9998 24.5037 36.9998 24.3818C36.9998 24.26 36.9294 24.1508 36.824 24.1076L36.7597 24.0815C35.959 23.756 35.3375 23.1009 35.0546 22.2842L35.0029 22.1348C34.9631 22.0205 34.8623 21.9443 34.7498 21.9443C34.6373 21.9443 34.5365 22.0205 34.4966 22.1348L34.4449 22.2842C34.162 23.1009 33.5406 23.756 32.7398 24.0815L32.6756 24.1076ZM29.8068 23.8055C29.7459 23.6607 29.6123 23.5693 29.4669 23.5693C29.3216 23.5693 29.188 23.6607 29.1271 23.8055L28.3218 25.6892C28.0427 26.3418 27.5413 26.8744 26.9066 27.1923L25.2177 28.0381C25.0841 28.1041 24.9998 28.2488 24.9998 28.4088C24.9998 28.5688 25.0841 28.711 25.2177 28.777L26.9062 29.6219C27.5426 29.9403 28.045 30.4745 28.3239 31.1292L29.1248 33.0096C29.1857 33.1543 29.3193 33.2458 29.4646 33.2458C29.6099 33.2458 29.7435 33.1543 29.8044 33.0096L30.6076 31.1259C30.8865 30.4717 31.3887 29.9378 32.0248 29.6196L33.7138 28.7745C33.8474 28.7084 33.9318 28.5637 33.9318 28.4063C33.9318 28.2488 33.8474 28.1041 33.7138 28.0381L32.0279 27.1954C31.3914 26.8772 30.8887 26.3432 30.6096 25.6885L29.8068 23.8055ZM34.4449 30.4092C34.162 31.226 33.5406 31.881 32.7399 32.2065L32.6756 32.2327C32.5701 32.2758 32.4998 32.385 32.4998 32.5068C32.4998 32.6287 32.5701 32.7379 32.6756 32.7811L32.7398 32.8072C33.5405 33.1327 34.162 33.7877 34.4449 34.6045L34.4966 34.754C34.5365 34.8682 34.6373 34.9443 34.7498 34.9443C34.8623 34.9443 34.9631 34.8682 35.0029 34.754L35.0546 34.6045C35.3375 33.7877 35.959 33.1327 36.7597 32.8072L36.824 32.7811C36.9294 32.7379 36.9998 32.6287 36.9998 32.5068C36.9998 32.385 36.9294 32.2758 36.824 32.2327L36.7596 32.2065C35.9589 31.881 35.3375 31.226 35.0547 30.4092L35.0029 30.2598C34.9631 30.1455 34.8623 30.0693 34.7498 30.0693C34.6373 30.0693 34.5365 30.1455 34.4966 30.2598L34.4449 30.4092Z" fill="black"/>
</svg>
